<mxfile host="app.diagrams.net" modified="2024-03-15T13:04:57.624Z" agent="Mozilla/5.0 (Windows NT 10.0; Win64; x64; rv:122.0) Gecko/20100101 Firefox/122.0" etag="cdYg2A7vCGsJUGIGpjEC" version="23.1.7" type="device">
  <diagram name="Page-1" id="g8u3EqbDGnmIQ15H0VFy">
    <mxGraphModel dx="1900" dy="538" grid="1" gridSize="10" guides="1" tooltips="1" connect="1" arrows="1" fold="1" page="1" pageScale="1" pageWidth="850" pageHeight="1100" math="0" shadow="0">
      <root>
        <mxCell id="0" />
        <mxCell id="1" parent="0" />
        <mxCell id="17U4AnQlsUlEn0hhstt_-42" value="" style="ellipse;whiteSpace=wrap;html=1;fillColor=none;dashed=1;" parent="1" vertex="1">
          <mxGeometry x="280" y="800" width="200" height="280" as="geometry" />
        </mxCell>
        <mxCell id="8UHLDPn8tABed_t0NQAo-1" value="&lt;div&gt;&lt;b&gt;LAI green(t)&lt;/b&gt;&lt;/div&gt;&lt;div&gt;= green leaf area / land area&lt;br&gt;&lt;/div&gt;" style="rounded=0;whiteSpace=wrap;html=1;strokeWidth=2;" parent="1" vertex="1">
          <mxGeometry x="240" y="100" width="120" height="60" as="geometry" />
        </mxCell>
        <mxCell id="8UHLDPn8tABed_t0NQAo-2" value="&lt;div&gt;&lt;b&gt;Plant height(t)&lt;/b&gt;&lt;/div&gt;&lt;div&gt;= highest point of canopy&lt;br&gt;&lt;/div&gt;" style="rounded=0;whiteSpace=wrap;html=1;strokeWidth=2;" parent="1" vertex="1">
          <mxGeometry x="440" y="100" width="120" height="60" as="geometry" />
        </mxCell>
        <mxCell id="8UHLDPn8tABed_t0NQAo-3" value="&lt;div&gt;Leaf appearance &lt;br&gt;&lt;/div&gt;" style="ellipse;whiteSpace=wrap;html=1;" parent="1" vertex="1">
          <mxGeometry x="200" y="190" width="120" height="80" as="geometry" />
        </mxCell>
        <mxCell id="8UHLDPn8tABed_t0NQAo-4" value="&lt;div&gt;Leaf growth&lt;/div&gt;&lt;div&gt;(leaf length, max width, coordinates of culminating point, etc)&lt;br&gt;&lt;/div&gt;" style="ellipse;whiteSpace=wrap;html=1;" parent="1" vertex="1">
          <mxGeometry x="360" y="360" width="140" height="90" as="geometry" />
        </mxCell>
        <mxCell id="8UHLDPn8tABed_t0NQAo-5" value="&lt;div&gt;Leaf senescence&lt;/div&gt;" style="ellipse;whiteSpace=wrap;html=1;" parent="1" vertex="1">
          <mxGeometry x="530" y="420" width="120" height="80" as="geometry" />
        </mxCell>
        <mxCell id="8UHLDPn8tABed_t0NQAo-7" value="Internode appearance" style="ellipse;whiteSpace=wrap;html=1;" parent="1" vertex="1">
          <mxGeometry x="200" y="290" width="120" height="80" as="geometry" />
        </mxCell>
        <mxCell id="8UHLDPn8tABed_t0NQAo-9" value="Phyllotaxy" style="shape=process;whiteSpace=wrap;html=1;backgroundOutline=1;" parent="1" vertex="1">
          <mxGeometry x="40" y="380" width="120" height="60" as="geometry" />
        </mxCell>
        <mxCell id="8UHLDPn8tABed_t0NQAo-10" value="" style="rounded=0;whiteSpace=wrap;html=1;strokeWidth=2;" parent="1" vertex="1">
          <mxGeometry x="10" y="10" width="40" height="20" as="geometry" />
        </mxCell>
        <mxCell id="8UHLDPn8tABed_t0NQAo-11" value="parameter" style="text;html=1;align=center;verticalAlign=middle;whiteSpace=wrap;rounded=0;" parent="1" vertex="1">
          <mxGeometry x="60" y="35" width="60" height="30" as="geometry" />
        </mxCell>
        <mxCell id="8UHLDPn8tABed_t0NQAo-12" value="from STICS" style="text;html=1;align=center;verticalAlign=middle;whiteSpace=wrap;rounded=0;" parent="1" vertex="1">
          <mxGeometry x="60" y="5" width="70" height="30" as="geometry" />
        </mxCell>
        <mxCell id="8UHLDPn8tABed_t0NQAo-13" value="" style="rounded=0;whiteSpace=wrap;html=1;" parent="1" vertex="1">
          <mxGeometry x="10" y="40" width="40" height="20" as="geometry" />
        </mxCell>
        <mxCell id="8UHLDPn8tABed_t0NQAo-14" value="" style="shape=process;whiteSpace=wrap;html=1;backgroundOutline=1;" parent="1" vertex="1">
          <mxGeometry x="10" y="70" width="40" height="20" as="geometry" />
        </mxCell>
        <mxCell id="8UHLDPn8tABed_t0NQAo-15" value="parameter = degrees of freedom" style="text;html=1;align=center;verticalAlign=middle;whiteSpace=wrap;rounded=0;" parent="1" vertex="1">
          <mxGeometry x="60" y="65" width="180" height="30" as="geometry" />
        </mxCell>
        <mxCell id="8UHLDPn8tABed_t0NQAo-16" value="" style="ellipse;whiteSpace=wrap;html=1;" parent="1" vertex="1">
          <mxGeometry x="10" y="100" width="40" height="30" as="geometry" />
        </mxCell>
        <mxCell id="8UHLDPn8tABed_t0NQAo-17" value="&lt;div&gt;plant processes &lt;br&gt;&lt;/div&gt;" style="text;html=1;align=left;verticalAlign=middle;whiteSpace=wrap;rounded=0;" parent="1" vertex="1">
          <mxGeometry x="60" y="100" width="120" height="30" as="geometry" />
        </mxCell>
        <mxCell id="8UHLDPn8tABed_t0NQAo-18" value="&lt;div&gt;Tillering &lt;br&gt;&lt;/div&gt;&lt;div&gt;(same leaf and stem processes for common LAI(t))&lt;br&gt;&lt;/div&gt;" style="ellipse;whiteSpace=wrap;html=1;" parent="1" vertex="1">
          <mxGeometry x="340" y="660" width="120" height="80" as="geometry" />
        </mxCell>
        <mxCell id="8UHLDPn8tABed_t0NQAo-19" value="Nb of tillers/basal branches (and all branching patterns)" style="shape=process;whiteSpace=wrap;html=1;backgroundOutline=1;" parent="1" vertex="1">
          <mxGeometry x="40" y="650" width="120" height="80" as="geometry" />
        </mxCell>
        <mxCell id="8UHLDPn8tABed_t0NQAo-24" value="&lt;div&gt;Sexual organs appearance&lt;/div&gt;&lt;div&gt;(nb and geometry)&lt;br&gt;&lt;/div&gt;" style="ellipse;whiteSpace=wrap;html=1;" parent="1" vertex="1">
          <mxGeometry x="680" y="200" width="120" height="80" as="geometry" />
        </mxCell>
        <mxCell id="8UHLDPn8tABed_t0NQAo-26" value="" style="endArrow=classic;html=1;rounded=0;exitX=0.75;exitY=1;exitDx=0;exitDy=0;" parent="1" source="8UHLDPn8tABed_t0NQAo-2" target="8UHLDPn8tABed_t0NQAo-4" edge="1">
          <mxGeometry width="50" height="50" relative="1" as="geometry">
            <mxPoint x="440" y="170" as="sourcePoint" />
            <mxPoint x="450" y="260" as="targetPoint" />
          </mxGeometry>
        </mxCell>
        <mxCell id="8UHLDPn8tABed_t0NQAo-30" value="" style="endArrow=classic;html=1;rounded=0;exitX=0.5;exitY=1;exitDx=0;exitDy=0;entryX=0.5;entryY=0;entryDx=0;entryDy=0;" parent="1" target="8UHLDPn8tABed_t0NQAo-1" edge="1">
          <mxGeometry width="50" height="50" relative="1" as="geometry">
            <mxPoint x="400" y="65" as="sourcePoint" />
            <mxPoint x="450" y="260" as="targetPoint" />
          </mxGeometry>
        </mxCell>
        <mxCell id="8UHLDPn8tABed_t0NQAo-31" value="" style="endArrow=classic;html=1;rounded=0;exitX=1;exitY=1;exitDx=0;exitDy=0;" parent="1" source="8UHLDPn8tABed_t0NQAo-3" target="8UHLDPn8tABed_t0NQAo-4" edge="1">
          <mxGeometry width="50" height="50" relative="1" as="geometry">
            <mxPoint x="400" y="440" as="sourcePoint" />
            <mxPoint x="450" y="390" as="targetPoint" />
          </mxGeometry>
        </mxCell>
        <mxCell id="8UHLDPn8tABed_t0NQAo-33" value="" style="endArrow=classic;html=1;rounded=0;exitX=1;exitY=0.5;exitDx=0;exitDy=0;" parent="1" source="17U4AnQlsUlEn0hhstt_-133" target="8UHLDPn8tABed_t0NQAo-4" edge="1">
          <mxGeometry width="50" height="50" relative="1" as="geometry">
            <mxPoint x="160" y="350" as="sourcePoint" />
            <mxPoint x="450" y="390" as="targetPoint" />
          </mxGeometry>
        </mxCell>
        <mxCell id="8UHLDPn8tABed_t0NQAo-36" value="" style="endArrow=classic;html=1;rounded=0;exitX=0;exitY=0.5;exitDx=0;exitDy=0;entryX=1;entryY=0.5;entryDx=0;entryDy=0;" parent="1" source="17U4AnQlsUlEn0hhstt_-137" target="8UHLDPn8tABed_t0NQAo-5" edge="1">
          <mxGeometry width="50" height="50" relative="1" as="geometry">
            <mxPoint x="160" y="590" as="sourcePoint" />
            <mxPoint x="450" y="540" as="targetPoint" />
          </mxGeometry>
        </mxCell>
        <mxCell id="8UHLDPn8tABed_t0NQAo-37" value="" style="endArrow=classic;html=1;rounded=0;exitX=1;exitY=0.5;exitDx=0;exitDy=0;" parent="1" source="8UHLDPn8tABed_t0NQAo-19" target="8UHLDPn8tABed_t0NQAo-18" edge="1">
          <mxGeometry width="50" height="50" relative="1" as="geometry">
            <mxPoint x="400" y="590" as="sourcePoint" />
            <mxPoint x="450" y="540" as="targetPoint" />
          </mxGeometry>
        </mxCell>
        <mxCell id="8UHLDPn8tABed_t0NQAo-39" value="" style="endArrow=classic;html=1;rounded=0;entryX=0.5;entryY=0;entryDx=0;entryDy=0;exitX=0.5;exitY=1;exitDx=0;exitDy=0;" parent="1" source="8UHLDPn8tABed_t0NQAo-1" target="8UHLDPn8tABed_t0NQAo-4" edge="1">
          <mxGeometry width="50" height="50" relative="1" as="geometry">
            <mxPoint x="300" y="170" as="sourcePoint" />
            <mxPoint x="300" y="380" as="targetPoint" />
          </mxGeometry>
        </mxCell>
        <mxCell id="17U4AnQlsUlEn0hhstt_-1" value="" style="endArrow=classic;html=1;rounded=0;exitX=0.5;exitY=1;exitDx=0;exitDy=0;entryX=0.5;entryY=0;entryDx=0;entryDy=0;" parent="1" target="8UHLDPn8tABed_t0NQAo-2" edge="1">
          <mxGeometry width="50" height="50" relative="1" as="geometry">
            <mxPoint x="400" y="65" as="sourcePoint" />
            <mxPoint x="310" y="110" as="targetPoint" />
          </mxGeometry>
        </mxCell>
        <mxCell id="17U4AnQlsUlEn0hhstt_-6" value="" style="endArrow=classic;html=1;rounded=0;exitX=1;exitY=0.5;exitDx=0;exitDy=0;" parent="1" source="8UHLDPn8tABed_t0NQAo-9" target="8UHLDPn8tABed_t0NQAo-4" edge="1">
          <mxGeometry width="50" height="50" relative="1" as="geometry">
            <mxPoint x="510" y="400" as="sourcePoint" />
            <mxPoint x="560" y="350" as="targetPoint" />
          </mxGeometry>
        </mxCell>
        <mxCell id="17U4AnQlsUlEn0hhstt_-12" value="Leaf blade curvature" style="shape=process;whiteSpace=wrap;html=1;backgroundOutline=1;" parent="1" vertex="1">
          <mxGeometry x="450" y="520" width="120" height="60" as="geometry" />
        </mxCell>
        <mxCell id="17U4AnQlsUlEn0hhstt_-13" value="&lt;div&gt;Fruiting&lt;/div&gt;&lt;div&gt;(nb, mass and geometry of fruits)&lt;br&gt;&lt;/div&gt;" style="ellipse;whiteSpace=wrap;html=1;" parent="1" vertex="1">
          <mxGeometry x="680" y="310" width="120" height="80" as="geometry" />
        </mxCell>
        <mxCell id="17U4AnQlsUlEn0hhstt_-14" value="" style="endArrow=classic;html=1;rounded=0;exitX=0.5;exitY=1;exitDx=0;exitDy=0;" parent="1" source="8UHLDPn8tABed_t0NQAo-24" target="17U4AnQlsUlEn0hhstt_-13" edge="1">
          <mxGeometry width="50" height="50" relative="1" as="geometry">
            <mxPoint x="510" y="350" as="sourcePoint" />
            <mxPoint x="740" y="340" as="targetPoint" />
          </mxGeometry>
        </mxCell>
        <mxCell id="17U4AnQlsUlEn0hhstt_-23" value="&lt;div&gt;Leaves&lt;/div&gt;&lt;div&gt;(growth, ligulation, senescence)&lt;br&gt;&lt;/div&gt;" style="rounded=1;whiteSpace=wrap;html=1;" parent="1" vertex="1">
          <mxGeometry x="600" y="840" width="120" height="60" as="geometry" />
        </mxCell>
        <mxCell id="17U4AnQlsUlEn0hhstt_-24" value="Main stem" style="rounded=1;whiteSpace=wrap;html=1;" parent="1" vertex="1">
          <mxGeometry x="320" y="850" width="120" height="60" as="geometry" />
        </mxCell>
        <mxCell id="17U4AnQlsUlEn0hhstt_-25" value="Flowers / fruits" style="rounded=1;whiteSpace=wrap;html=1;" parent="1" vertex="1">
          <mxGeometry x="600" y="980" width="120" height="60" as="geometry" />
        </mxCell>
        <mxCell id="17U4AnQlsUlEn0hhstt_-27" value="Appearance of leaves along axes for each internode" style="text;html=1;align=center;verticalAlign=middle;whiteSpace=wrap;rounded=0;" parent="1" vertex="1">
          <mxGeometry x="495" y="810" width="60" height="70" as="geometry" />
        </mxCell>
        <mxCell id="17U4AnQlsUlEn0hhstt_-33" value="for each dt, each leaf receives % of dLAI(t) corresponding to % of total demand" style="text;html=1;align=center;verticalAlign=middle;whiteSpace=wrap;rounded=0;" parent="1" vertex="1">
          <mxGeometry x="-135" y="430" width="135" height="110" as="geometry" />
        </mxCell>
        <mxCell id="17U4AnQlsUlEn0hhstt_-35" value="Branching pattern" style="text;html=1;align=center;verticalAlign=middle;whiteSpace=wrap;rounded=0;" parent="1" vertex="1">
          <mxGeometry x="382.5" y="925" width="60" height="30" as="geometry" />
        </mxCell>
        <mxCell id="17U4AnQlsUlEn0hhstt_-36" value="&lt;div&gt;Branches /&amp;nbsp;&lt;/div&gt;&lt;div&gt;Tillers (= total reiteration, for grasses)&lt;/div&gt;" style="rounded=1;whiteSpace=wrap;html=1;" parent="1" vertex="1">
          <mxGeometry x="320" y="970" width="120" height="60" as="geometry" />
        </mxCell>
        <mxCell id="17U4AnQlsUlEn0hhstt_-37" value="" style="endArrow=classic;html=1;rounded=0;exitX=0.5;exitY=1;exitDx=0;exitDy=0;entryX=0.5;entryY=0;entryDx=0;entryDy=0;" parent="1" source="17U4AnQlsUlEn0hhstt_-24" target="17U4AnQlsUlEn0hhstt_-36" edge="1">
          <mxGeometry width="50" height="50" relative="1" as="geometry">
            <mxPoint x="510" y="944" as="sourcePoint" />
            <mxPoint x="560" y="894" as="targetPoint" />
          </mxGeometry>
        </mxCell>
        <mxCell id="17U4AnQlsUlEn0hhstt_-38" value="(In)determinate ?" style="text;html=1;align=center;verticalAlign=middle;whiteSpace=wrap;rounded=0;" parent="1" vertex="1">
          <mxGeometry x="480" y="1000" width="90" height="30" as="geometry" />
        </mxCell>
        <mxCell id="17U4AnQlsUlEn0hhstt_-43" value="" style="endArrow=classic;html=1;rounded=0;exitX=0.995;exitY=0.385;exitDx=0;exitDy=0;exitPerimeter=0;entryX=0;entryY=0.5;entryDx=0;entryDy=0;" parent="1" source="17U4AnQlsUlEn0hhstt_-42" target="17U4AnQlsUlEn0hhstt_-23" edge="1">
          <mxGeometry width="50" height="50" relative="1" as="geometry">
            <mxPoint x="510" y="900" as="sourcePoint" />
            <mxPoint x="560" y="850" as="targetPoint" />
          </mxGeometry>
        </mxCell>
        <mxCell id="17U4AnQlsUlEn0hhstt_-44" value="" style="endArrow=classic;html=1;rounded=0;exitX=0.99;exitY=0.635;exitDx=0;exitDy=0;exitPerimeter=0;entryX=0;entryY=0.5;entryDx=0;entryDy=0;" parent="1" source="17U4AnQlsUlEn0hhstt_-42" target="17U4AnQlsUlEn0hhstt_-25" edge="1">
          <mxGeometry width="50" height="50" relative="1" as="geometry">
            <mxPoint x="510" y="900" as="sourcePoint" />
            <mxPoint x="560" y="850" as="targetPoint" />
          </mxGeometry>
        </mxCell>
        <mxCell id="17U4AnQlsUlEn0hhstt_-45" value="Sequences of internodes" style="text;html=1;align=center;verticalAlign=middle;whiteSpace=wrap;rounded=0;" parent="1" vertex="1">
          <mxGeometry x="345" y="810" width="70" height="30" as="geometry" />
        </mxCell>
        <mxCell id="17U4AnQlsUlEn0hhstt_-49" value="Outputs" style="swimlane;fontStyle=0;childLayout=stackLayout;horizontal=1;startSize=30;horizontalStack=0;resizeParent=1;resizeParentMax=0;resizeLast=0;collapsible=1;marginBottom=0;whiteSpace=wrap;html=1;" parent="1" vertex="1">
          <mxGeometry x="10" y="810" width="140" height="160" as="geometry" />
        </mxCell>
        <mxCell id="17U4AnQlsUlEn0hhstt_-51" value="Nb of phytomers (I+L)" style="text;strokeColor=none;fillColor=none;align=left;verticalAlign=middle;spacingLeft=4;spacingRight=4;overflow=hidden;points=[[0,0.5],[1,0.5]];portConstraint=eastwest;rotatable=0;whiteSpace=wrap;html=1;" parent="17U4AnQlsUlEn0hhstt_-49" vertex="1">
          <mxGeometry y="30" width="140" height="30" as="geometry" />
        </mxCell>
        <mxCell id="17U4AnQlsUlEn0hhstt_-52" value="Estimation of organs biomass" style="text;strokeColor=none;fillColor=none;align=left;verticalAlign=middle;spacingLeft=4;spacingRight=4;overflow=hidden;points=[[0,0.5],[1,0.5]];portConstraint=eastwest;rotatable=0;whiteSpace=wrap;html=1;" parent="17U4AnQlsUlEn0hhstt_-49" vertex="1">
          <mxGeometry y="60" width="140" height="50" as="geometry" />
        </mxCell>
        <mxCell id="17U4AnQlsUlEn0hhstt_-131" value="Light intercepted " style="text;strokeColor=none;fillColor=none;align=left;verticalAlign=middle;spacingLeft=4;spacingRight=4;overflow=hidden;points=[[0,0.5],[1,0.5]];portConstraint=eastwest;rotatable=0;whiteSpace=wrap;html=1;" parent="17U4AnQlsUlEn0hhstt_-49" vertex="1">
          <mxGeometry y="110" width="140" height="50" as="geometry" />
        </mxCell>
        <mxCell id="17U4AnQlsUlEn0hhstt_-70" value="Architecture grass (Poaceae)" style="shape=table;startSize=30;container=1;collapsible=0;childLayout=tableLayout;strokeColor=default;fontSize=16;" parent="1" vertex="1">
          <mxGeometry x="40" y="1160" width="320" height="400" as="geometry" />
        </mxCell>
        <mxCell id="17U4AnQlsUlEn0hhstt_-71" value="" style="shape=tableRow;horizontal=0;startSize=0;swimlaneHead=0;swimlaneBody=0;strokeColor=inherit;top=0;left=0;bottom=0;right=0;collapsible=0;dropTarget=0;fillColor=none;points=[[0,0.5],[1,0.5]];portConstraint=eastwest;fontSize=16;" parent="17U4AnQlsUlEn0hhstt_-70" vertex="1">
          <mxGeometry y="30" width="320" height="40" as="geometry" />
        </mxCell>
        <mxCell id="17U4AnQlsUlEn0hhstt_-72" value="" style="shape=partialRectangle;html=1;whiteSpace=wrap;connectable=0;strokeColor=inherit;overflow=hidden;fillColor=none;top=0;left=0;bottom=0;right=0;pointerEvents=1;fontSize=16;" parent="17U4AnQlsUlEn0hhstt_-71" vertex="1">
          <mxGeometry width="110" height="40" as="geometry">
            <mxRectangle width="110" height="40" as="alternateBounds" />
          </mxGeometry>
        </mxCell>
        <mxCell id="17U4AnQlsUlEn0hhstt_-73" value="Main stem / tillers" style="shape=partialRectangle;html=1;whiteSpace=wrap;connectable=0;strokeColor=inherit;overflow=hidden;fillColor=none;top=0;left=0;bottom=0;right=0;pointerEvents=1;fontSize=16;" parent="17U4AnQlsUlEn0hhstt_-71" vertex="1">
          <mxGeometry x="110" width="210" height="40" as="geometry">
            <mxRectangle width="210" height="40" as="alternateBounds" />
          </mxGeometry>
        </mxCell>
        <mxCell id="17U4AnQlsUlEn0hhstt_-75" value="" style="shape=tableRow;horizontal=0;startSize=0;swimlaneHead=0;swimlaneBody=0;strokeColor=inherit;top=0;left=0;bottom=0;right=0;collapsible=0;dropTarget=0;fillColor=none;points=[[0,0.5],[1,0.5]];portConstraint=eastwest;fontSize=16;" parent="17U4AnQlsUlEn0hhstt_-70" vertex="1">
          <mxGeometry y="70" width="320" height="40" as="geometry" />
        </mxCell>
        <mxCell id="17U4AnQlsUlEn0hhstt_-76" value="Phyllotaxy" style="shape=partialRectangle;html=1;whiteSpace=wrap;connectable=0;strokeColor=inherit;overflow=hidden;fillColor=none;top=0;left=0;bottom=0;right=0;pointerEvents=1;fontSize=16;" parent="17U4AnQlsUlEn0hhstt_-75" vertex="1">
          <mxGeometry width="110" height="40" as="geometry">
            <mxRectangle width="110" height="40" as="alternateBounds" />
          </mxGeometry>
        </mxCell>
        <mxCell id="17U4AnQlsUlEn0hhstt_-77" value="alternate distichous" style="shape=partialRectangle;html=1;whiteSpace=wrap;connectable=0;strokeColor=inherit;overflow=hidden;fillColor=none;top=0;left=0;bottom=0;right=0;pointerEvents=1;fontSize=16;" parent="17U4AnQlsUlEn0hhstt_-75" vertex="1">
          <mxGeometry x="110" width="210" height="40" as="geometry">
            <mxRectangle width="210" height="40" as="alternateBounds" />
          </mxGeometry>
        </mxCell>
        <mxCell id="17U4AnQlsUlEn0hhstt_-105" style="shape=tableRow;horizontal=0;startSize=0;swimlaneHead=0;swimlaneBody=0;strokeColor=inherit;top=0;left=0;bottom=0;right=0;collapsible=0;dropTarget=0;fillColor=none;points=[[0,0.5],[1,0.5]];portConstraint=eastwest;fontSize=16;" parent="17U4AnQlsUlEn0hhstt_-70" vertex="1">
          <mxGeometry y="110" width="320" height="40" as="geometry" />
        </mxCell>
        <mxCell id="17U4AnQlsUlEn0hhstt_-106" value="Symmetry" style="shape=partialRectangle;html=1;whiteSpace=wrap;connectable=0;strokeColor=inherit;overflow=hidden;fillColor=none;top=0;left=0;bottom=0;right=0;pointerEvents=1;fontSize=16;" parent="17U4AnQlsUlEn0hhstt_-105" vertex="1">
          <mxGeometry width="110" height="40" as="geometry">
            <mxRectangle width="110" height="40" as="alternateBounds" />
          </mxGeometry>
        </mxCell>
        <mxCell id="17U4AnQlsUlEn0hhstt_-107" value="bilateral" style="shape=partialRectangle;html=1;whiteSpace=wrap;connectable=0;strokeColor=inherit;overflow=hidden;fillColor=none;top=0;left=0;bottom=0;right=0;pointerEvents=1;fontSize=16;" parent="17U4AnQlsUlEn0hhstt_-105" vertex="1">
          <mxGeometry x="110" width="210" height="40" as="geometry">
            <mxRectangle width="210" height="40" as="alternateBounds" />
          </mxGeometry>
        </mxCell>
        <mxCell id="17U4AnQlsUlEn0hhstt_-79" value="" style="shape=tableRow;horizontal=0;startSize=0;swimlaneHead=0;swimlaneBody=0;strokeColor=inherit;top=0;left=0;bottom=0;right=0;collapsible=0;dropTarget=0;fillColor=none;points=[[0,0.5],[1,0.5]];portConstraint=eastwest;fontSize=16;" parent="17U4AnQlsUlEn0hhstt_-70" vertex="1">
          <mxGeometry y="150" width="320" height="40" as="geometry" />
        </mxCell>
        <mxCell id="17U4AnQlsUlEn0hhstt_-80" value="Axis development" style="shape=partialRectangle;html=1;whiteSpace=wrap;connectable=0;strokeColor=inherit;overflow=hidden;fillColor=none;top=0;left=0;bottom=0;right=0;pointerEvents=1;fontSize=16;" parent="17U4AnQlsUlEn0hhstt_-79" vertex="1">
          <mxGeometry width="110" height="40" as="geometry">
            <mxRectangle width="110" height="40" as="alternateBounds" />
          </mxGeometry>
        </mxCell>
        <mxCell id="17U4AnQlsUlEn0hhstt_-81" value="&lt;div&gt;monopodial&lt;/div&gt;&lt;div&gt;orthotropic&lt;br&gt;&lt;/div&gt;" style="shape=partialRectangle;html=1;whiteSpace=wrap;connectable=0;strokeColor=inherit;overflow=hidden;fillColor=none;top=0;left=0;bottom=0;right=0;pointerEvents=1;fontSize=16;" parent="17U4AnQlsUlEn0hhstt_-79" vertex="1">
          <mxGeometry x="110" width="210" height="40" as="geometry">
            <mxRectangle width="210" height="40" as="alternateBounds" />
          </mxGeometry>
        </mxCell>
        <mxCell id="17U4AnQlsUlEn0hhstt_-97" style="shape=tableRow;horizontal=0;startSize=0;swimlaneHead=0;swimlaneBody=0;strokeColor=inherit;top=0;left=0;bottom=0;right=0;collapsible=0;dropTarget=0;fillColor=none;points=[[0,0.5],[1,0.5]];portConstraint=eastwest;fontSize=16;" parent="17U4AnQlsUlEn0hhstt_-70" vertex="1">
          <mxGeometry y="190" width="320" height="40" as="geometry" />
        </mxCell>
        <mxCell id="17U4AnQlsUlEn0hhstt_-98" value="Branching" style="shape=partialRectangle;html=1;whiteSpace=wrap;connectable=0;strokeColor=inherit;overflow=hidden;fillColor=none;top=0;left=0;bottom=0;right=0;pointerEvents=1;fontSize=16;" parent="17U4AnQlsUlEn0hhstt_-97" vertex="1">
          <mxGeometry width="110" height="40" as="geometry">
            <mxRectangle width="110" height="40" as="alternateBounds" />
          </mxGeometry>
        </mxCell>
        <mxCell id="17U4AnQlsUlEn0hhstt_-99" value="&lt;div&gt;delayed&lt;/div&gt;&lt;div&gt;basal&lt;br&gt;&lt;/div&gt;" style="shape=partialRectangle;html=1;whiteSpace=wrap;connectable=0;strokeColor=inherit;overflow=hidden;fillColor=none;top=0;left=0;bottom=0;right=0;pointerEvents=1;fontSize=16;" parent="17U4AnQlsUlEn0hhstt_-97" vertex="1">
          <mxGeometry x="110" width="210" height="40" as="geometry">
            <mxRectangle width="210" height="40" as="alternateBounds" />
          </mxGeometry>
        </mxCell>
        <mxCell id="17U4AnQlsUlEn0hhstt_-101" style="shape=tableRow;horizontal=0;startSize=0;swimlaneHead=0;swimlaneBody=0;strokeColor=inherit;top=0;left=0;bottom=0;right=0;collapsible=0;dropTarget=0;fillColor=none;points=[[0,0.5],[1,0.5]];portConstraint=eastwest;fontSize=16;" parent="17U4AnQlsUlEn0hhstt_-70" vertex="1">
          <mxGeometry y="230" width="320" height="60" as="geometry" />
        </mxCell>
        <mxCell id="17U4AnQlsUlEn0hhstt_-102" value="Growth" style="shape=partialRectangle;html=1;whiteSpace=wrap;connectable=0;strokeColor=inherit;overflow=hidden;fillColor=none;top=0;left=0;bottom=0;right=0;pointerEvents=1;fontSize=16;" parent="17U4AnQlsUlEn0hhstt_-101" vertex="1">
          <mxGeometry width="110" height="60" as="geometry">
            <mxRectangle width="110" height="60" as="alternateBounds" />
          </mxGeometry>
        </mxCell>
        <mxCell id="17U4AnQlsUlEn0hhstt_-103" value="Determinate with terminal cluster of flowers then fruits (= panicle)" style="shape=partialRectangle;html=1;whiteSpace=wrap;connectable=0;strokeColor=inherit;overflow=hidden;fillColor=none;top=0;left=0;bottom=0;right=0;pointerEvents=1;fontSize=16;" parent="17U4AnQlsUlEn0hhstt_-101" vertex="1">
          <mxGeometry x="110" width="210" height="60" as="geometry">
            <mxRectangle width="210" height="60" as="alternateBounds" />
          </mxGeometry>
        </mxCell>
        <mxCell id="17U4AnQlsUlEn0hhstt_-109" style="shape=tableRow;horizontal=0;startSize=0;swimlaneHead=0;swimlaneBody=0;strokeColor=inherit;top=0;left=0;bottom=0;right=0;collapsible=0;dropTarget=0;fillColor=none;points=[[0,0.5],[1,0.5]];portConstraint=eastwest;fontSize=16;" parent="17U4AnQlsUlEn0hhstt_-70" vertex="1">
          <mxGeometry y="290" width="320" height="110" as="geometry" />
        </mxCell>
        <mxCell id="17U4AnQlsUlEn0hhstt_-110" value="Leaves" style="shape=partialRectangle;html=1;whiteSpace=wrap;connectable=0;strokeColor=inherit;overflow=hidden;fillColor=none;top=0;left=0;bottom=0;right=0;pointerEvents=1;fontSize=16;" parent="17U4AnQlsUlEn0hhstt_-109" vertex="1">
          <mxGeometry width="110" height="110" as="geometry">
            <mxRectangle width="110" height="110" as="alternateBounds" />
          </mxGeometry>
        </mxCell>
        <mxCell id="17U4AnQlsUlEn0hhstt_-111" value="&lt;div&gt;simple, long, linear shape, accuminate apex, entire to wavy margin &lt;br&gt;&lt;/div&gt;&lt;div&gt;Presence of a sheath and a ligule&lt;br&gt;&lt;/div&gt;" style="shape=partialRectangle;html=1;whiteSpace=wrap;connectable=0;strokeColor=inherit;overflow=hidden;fillColor=none;top=0;left=0;bottom=0;right=0;pointerEvents=1;fontSize=16;" parent="17U4AnQlsUlEn0hhstt_-109" vertex="1">
          <mxGeometry x="110" width="210" height="110" as="geometry">
            <mxRectangle width="210" height="110" as="alternateBounds" />
          </mxGeometry>
        </mxCell>
        <mxCell id="17U4AnQlsUlEn0hhstt_-83" value="Architecture pea (Fabaceae)" style="shape=table;startSize=30;container=1;collapsible=0;childLayout=tableLayout;strokeColor=default;fontSize=16;" parent="1" vertex="1">
          <mxGeometry x="382.5" y="1160" width="447.5" height="550" as="geometry" />
        </mxCell>
        <mxCell id="17U4AnQlsUlEn0hhstt_-84" value="" style="shape=tableRow;horizontal=0;startSize=0;swimlaneHead=0;swimlaneBody=0;strokeColor=inherit;top=0;left=0;bottom=0;right=0;collapsible=0;dropTarget=0;fillColor=none;points=[[0,0.5],[1,0.5]];portConstraint=eastwest;fontSize=16;" parent="17U4AnQlsUlEn0hhstt_-83" vertex="1">
          <mxGeometry y="30" width="447.5" height="70" as="geometry" />
        </mxCell>
        <mxCell id="17U4AnQlsUlEn0hhstt_-85" value="" style="shape=partialRectangle;html=1;whiteSpace=wrap;connectable=0;strokeColor=inherit;overflow=hidden;fillColor=none;top=0;left=0;bottom=0;right=0;pointerEvents=1;fontSize=16;" parent="17U4AnQlsUlEn0hhstt_-84" vertex="1">
          <mxGeometry width="107" height="70" as="geometry">
            <mxRectangle width="107" height="70" as="alternateBounds" />
          </mxGeometry>
        </mxCell>
        <mxCell id="17U4AnQlsUlEn0hhstt_-86" value="Main stem / basal and other branches" style="shape=partialRectangle;html=1;whiteSpace=wrap;connectable=0;strokeColor=inherit;overflow=hidden;fillColor=none;top=0;left=0;bottom=0;right=0;pointerEvents=1;fontSize=16;" parent="17U4AnQlsUlEn0hhstt_-84" vertex="1">
          <mxGeometry x="107" width="210" height="70" as="geometry">
            <mxRectangle width="210" height="70" as="alternateBounds" />
          </mxGeometry>
        </mxCell>
        <mxCell id="17U4AnQlsUlEn0hhstt_-87" value="Short pod-bearing branches " style="shape=partialRectangle;html=1;whiteSpace=wrap;connectable=0;strokeColor=inherit;overflow=hidden;fillColor=none;top=0;left=0;bottom=0;right=0;pointerEvents=1;fontSize=16;" parent="17U4AnQlsUlEn0hhstt_-84" vertex="1">
          <mxGeometry x="317" width="131" height="70" as="geometry">
            <mxRectangle width="131" height="70" as="alternateBounds" />
          </mxGeometry>
        </mxCell>
        <mxCell id="17U4AnQlsUlEn0hhstt_-88" value="" style="shape=tableRow;horizontal=0;startSize=0;swimlaneHead=0;swimlaneBody=0;strokeColor=inherit;top=0;left=0;bottom=0;right=0;collapsible=0;dropTarget=0;fillColor=none;points=[[0,0.5],[1,0.5]];portConstraint=eastwest;fontSize=16;" parent="17U4AnQlsUlEn0hhstt_-83" vertex="1">
          <mxGeometry y="100" width="447.5" height="40" as="geometry" />
        </mxCell>
        <mxCell id="17U4AnQlsUlEn0hhstt_-89" value="Phyllotaxy" style="shape=partialRectangle;html=1;whiteSpace=wrap;connectable=0;strokeColor=inherit;overflow=hidden;fillColor=none;top=0;left=0;bottom=0;right=0;pointerEvents=1;fontSize=16;" parent="17U4AnQlsUlEn0hhstt_-88" vertex="1">
          <mxGeometry width="107" height="40" as="geometry">
            <mxRectangle width="107" height="40" as="alternateBounds" />
          </mxGeometry>
        </mxCell>
        <mxCell id="17U4AnQlsUlEn0hhstt_-90" value="alternate distichous" style="shape=partialRectangle;html=1;whiteSpace=wrap;connectable=0;strokeColor=inherit;overflow=hidden;fillColor=none;top=0;left=0;bottom=0;right=0;pointerEvents=1;fontSize=16;" parent="17U4AnQlsUlEn0hhstt_-88" vertex="1">
          <mxGeometry x="107" width="210" height="40" as="geometry">
            <mxRectangle width="210" height="40" as="alternateBounds" />
          </mxGeometry>
        </mxCell>
        <mxCell id="17U4AnQlsUlEn0hhstt_-91" value="alternate distichous" style="shape=partialRectangle;html=1;whiteSpace=wrap;connectable=0;strokeColor=inherit;overflow=hidden;fillColor=none;top=0;left=0;bottom=0;right=0;pointerEvents=1;fontSize=16;" parent="17U4AnQlsUlEn0hhstt_-88" vertex="1">
          <mxGeometry x="317" width="131" height="40" as="geometry">
            <mxRectangle width="131" height="40" as="alternateBounds" />
          </mxGeometry>
        </mxCell>
        <mxCell id="17U4AnQlsUlEn0hhstt_-92" value="" style="shape=tableRow;horizontal=0;startSize=0;swimlaneHead=0;swimlaneBody=0;strokeColor=inherit;top=0;left=0;bottom=0;right=0;collapsible=0;dropTarget=0;fillColor=none;points=[[0,0.5],[1,0.5]];portConstraint=eastwest;fontSize=16;" parent="17U4AnQlsUlEn0hhstt_-83" vertex="1">
          <mxGeometry y="140" width="447.5" height="40" as="geometry" />
        </mxCell>
        <mxCell id="17U4AnQlsUlEn0hhstt_-93" value="Symmetry" style="shape=partialRectangle;html=1;whiteSpace=wrap;connectable=0;strokeColor=inherit;overflow=hidden;fillColor=none;top=0;left=0;bottom=0;right=0;pointerEvents=1;fontSize=16;" parent="17U4AnQlsUlEn0hhstt_-92" vertex="1">
          <mxGeometry width="107" height="40" as="geometry">
            <mxRectangle width="107" height="40" as="alternateBounds" />
          </mxGeometry>
        </mxCell>
        <mxCell id="17U4AnQlsUlEn0hhstt_-94" value="bilateral" style="shape=partialRectangle;html=1;whiteSpace=wrap;connectable=0;strokeColor=inherit;overflow=hidden;fillColor=none;top=0;left=0;bottom=0;right=0;pointerEvents=1;fontSize=16;" parent="17U4AnQlsUlEn0hhstt_-92" vertex="1">
          <mxGeometry x="107" width="210" height="40" as="geometry">
            <mxRectangle width="210" height="40" as="alternateBounds" />
          </mxGeometry>
        </mxCell>
        <mxCell id="17U4AnQlsUlEn0hhstt_-95" value="bilateral" style="shape=partialRectangle;html=1;whiteSpace=wrap;connectable=0;strokeColor=inherit;overflow=hidden;fillColor=none;top=0;left=0;bottom=0;right=0;pointerEvents=1;fontSize=16;" parent="17U4AnQlsUlEn0hhstt_-92" vertex="1">
          <mxGeometry x="317" width="131" height="40" as="geometry">
            <mxRectangle width="131" height="40" as="alternateBounds" />
          </mxGeometry>
        </mxCell>
        <mxCell id="17U4AnQlsUlEn0hhstt_-126" style="shape=tableRow;horizontal=0;startSize=0;swimlaneHead=0;swimlaneBody=0;strokeColor=inherit;top=0;left=0;bottom=0;right=0;collapsible=0;dropTarget=0;fillColor=none;points=[[0,0.5],[1,0.5]];portConstraint=eastwest;fontSize=16;" parent="17U4AnQlsUlEn0hhstt_-83" vertex="1">
          <mxGeometry y="180" width="447.5" height="40" as="geometry" />
        </mxCell>
        <mxCell id="17U4AnQlsUlEn0hhstt_-127" value="Axis development" style="shape=partialRectangle;html=1;whiteSpace=wrap;connectable=0;strokeColor=inherit;overflow=hidden;fillColor=none;top=0;left=0;bottom=0;right=0;pointerEvents=1;fontSize=16;" parent="17U4AnQlsUlEn0hhstt_-126" vertex="1">
          <mxGeometry width="107" height="40" as="geometry">
            <mxRectangle width="107" height="40" as="alternateBounds" />
          </mxGeometry>
        </mxCell>
        <mxCell id="17U4AnQlsUlEn0hhstt_-128" value="&lt;div&gt;sympodial ?&lt;br&gt;&lt;/div&gt;&lt;div&gt;orthotropic&lt;/div&gt;" style="shape=partialRectangle;html=1;whiteSpace=wrap;connectable=0;strokeColor=inherit;overflow=hidden;fillColor=none;top=0;left=0;bottom=0;right=0;pointerEvents=1;fontSize=16;" parent="17U4AnQlsUlEn0hhstt_-126" vertex="1">
          <mxGeometry x="107" width="210" height="40" as="geometry">
            <mxRectangle width="210" height="40" as="alternateBounds" />
          </mxGeometry>
        </mxCell>
        <mxCell id="17U4AnQlsUlEn0hhstt_-129" value="ageotropic ?" style="shape=partialRectangle;html=1;whiteSpace=wrap;connectable=0;strokeColor=inherit;overflow=hidden;fillColor=none;top=0;left=0;bottom=0;right=0;pointerEvents=1;fontSize=16;" parent="17U4AnQlsUlEn0hhstt_-126" vertex="1">
          <mxGeometry x="317" width="131" height="40" as="geometry">
            <mxRectangle width="131" height="40" as="alternateBounds" />
          </mxGeometry>
        </mxCell>
        <mxCell id="17U4AnQlsUlEn0hhstt_-122" style="shape=tableRow;horizontal=0;startSize=0;swimlaneHead=0;swimlaneBody=0;strokeColor=inherit;top=0;left=0;bottom=0;right=0;collapsible=0;dropTarget=0;fillColor=none;points=[[0,0.5],[1,0.5]];portConstraint=eastwest;fontSize=16;" parent="17U4AnQlsUlEn0hhstt_-83" vertex="1">
          <mxGeometry y="220" width="447.5" height="60" as="geometry" />
        </mxCell>
        <mxCell id="17U4AnQlsUlEn0hhstt_-123" value="Branching" style="shape=partialRectangle;html=1;whiteSpace=wrap;connectable=0;strokeColor=inherit;overflow=hidden;fillColor=none;top=0;left=0;bottom=0;right=0;pointerEvents=1;fontSize=16;" parent="17U4AnQlsUlEn0hhstt_-122" vertex="1">
          <mxGeometry width="107" height="60" as="geometry">
            <mxRectangle width="107" height="60" as="alternateBounds" />
          </mxGeometry>
        </mxCell>
        <mxCell id="17U4AnQlsUlEn0hhstt_-124" value="&lt;div&gt;delayed&lt;br&gt;&lt;/div&gt;&lt;div&gt;basal and/or along axis&lt;/div&gt;" style="shape=partialRectangle;html=1;whiteSpace=wrap;connectable=0;strokeColor=inherit;overflow=hidden;fillColor=none;top=0;left=0;bottom=0;right=0;pointerEvents=1;fontSize=16;" parent="17U4AnQlsUlEn0hhstt_-122" vertex="1">
          <mxGeometry x="107" width="210" height="60" as="geometry">
            <mxRectangle width="210" height="60" as="alternateBounds" />
          </mxGeometry>
        </mxCell>
        <mxCell id="17U4AnQlsUlEn0hhstt_-125" value="No" style="shape=partialRectangle;html=1;whiteSpace=wrap;connectable=0;strokeColor=inherit;overflow=hidden;fillColor=none;top=0;left=0;bottom=0;right=0;pointerEvents=1;fontSize=16;" parent="17U4AnQlsUlEn0hhstt_-122" vertex="1">
          <mxGeometry x="317" width="131" height="60" as="geometry">
            <mxRectangle width="131" height="60" as="alternateBounds" />
          </mxGeometry>
        </mxCell>
        <mxCell id="17U4AnQlsUlEn0hhstt_-118" style="shape=tableRow;horizontal=0;startSize=0;swimlaneHead=0;swimlaneBody=0;strokeColor=inherit;top=0;left=0;bottom=0;right=0;collapsible=0;dropTarget=0;fillColor=none;points=[[0,0.5],[1,0.5]];portConstraint=eastwest;fontSize=16;" parent="17U4AnQlsUlEn0hhstt_-83" vertex="1">
          <mxGeometry y="280" width="447.5" height="70" as="geometry" />
        </mxCell>
        <mxCell id="17U4AnQlsUlEn0hhstt_-119" value="Growth" style="shape=partialRectangle;html=1;whiteSpace=wrap;connectable=0;strokeColor=inherit;overflow=hidden;fillColor=none;top=0;left=0;bottom=0;right=0;pointerEvents=1;fontSize=16;" parent="17U4AnQlsUlEn0hhstt_-118" vertex="1">
          <mxGeometry width="107" height="70" as="geometry">
            <mxRectangle width="107" height="70" as="alternateBounds" />
          </mxGeometry>
        </mxCell>
        <mxCell id="17U4AnQlsUlEn0hhstt_-120" value="mostly indeterminate (climbing), with lateral flowering" style="shape=partialRectangle;html=1;whiteSpace=wrap;connectable=0;strokeColor=inherit;overflow=hidden;fillColor=none;top=0;left=0;bottom=0;right=0;pointerEvents=1;fontSize=16;" parent="17U4AnQlsUlEn0hhstt_-118" vertex="1">
          <mxGeometry x="107" width="210" height="70" as="geometry">
            <mxRectangle width="210" height="70" as="alternateBounds" />
          </mxGeometry>
        </mxCell>
        <mxCell id="17U4AnQlsUlEn0hhstt_-121" value="" style="shape=partialRectangle;html=1;whiteSpace=wrap;connectable=0;strokeColor=inherit;overflow=hidden;fillColor=none;top=0;left=0;bottom=0;right=0;pointerEvents=1;fontSize=16;" parent="17U4AnQlsUlEn0hhstt_-118" vertex="1">
          <mxGeometry x="317" width="131" height="70" as="geometry">
            <mxRectangle width="131" height="70" as="alternateBounds" />
          </mxGeometry>
        </mxCell>
        <mxCell id="17U4AnQlsUlEn0hhstt_-114" style="shape=tableRow;horizontal=0;startSize=0;swimlaneHead=0;swimlaneBody=0;strokeColor=inherit;top=0;left=0;bottom=0;right=0;collapsible=0;dropTarget=0;fillColor=none;points=[[0,0.5],[1,0.5]];portConstraint=eastwest;fontSize=16;" parent="17U4AnQlsUlEn0hhstt_-83" vertex="1">
          <mxGeometry y="350" width="447.5" height="200" as="geometry" />
        </mxCell>
        <mxCell id="17U4AnQlsUlEn0hhstt_-115" value="Leaves" style="shape=partialRectangle;html=1;whiteSpace=wrap;connectable=0;strokeColor=inherit;overflow=hidden;fillColor=none;top=0;left=0;bottom=0;right=0;pointerEvents=1;fontSize=16;" parent="17U4AnQlsUlEn0hhstt_-114" vertex="1">
          <mxGeometry width="107" height="200" as="geometry">
            <mxRectangle width="107" height="200" as="alternateBounds" />
          </mxGeometry>
        </mxCell>
        <mxCell id="17U4AnQlsUlEn0hhstt_-116" value="&lt;div&gt;compound, 2 or 3 pairs of small leaflets with lanceolate shape, entire margin, obtuse apex and base&lt;br&gt;&lt;/div&gt;&lt;div&gt;Presence of leafy stipules (2, larger than leaflets, half-heart shaped) and tendrils (odd number, 3 or 5)&lt;br&gt;&lt;/div&gt;" style="shape=partialRectangle;html=1;whiteSpace=wrap;connectable=0;strokeColor=inherit;overflow=hidden;fillColor=none;top=0;left=0;bottom=0;right=0;pointerEvents=1;fontSize=16;" parent="17U4AnQlsUlEn0hhstt_-114" vertex="1">
          <mxGeometry x="107" width="210" height="200" as="geometry">
            <mxRectangle width="210" height="200" as="alternateBounds" />
          </mxGeometry>
        </mxCell>
        <mxCell id="17U4AnQlsUlEn0hhstt_-117" style="shape=partialRectangle;html=1;whiteSpace=wrap;connectable=0;strokeColor=inherit;overflow=hidden;fillColor=none;top=0;left=0;bottom=0;right=0;pointerEvents=1;fontSize=16;" parent="17U4AnQlsUlEn0hhstt_-114" vertex="1">
          <mxGeometry x="317" width="131" height="200" as="geometry">
            <mxRectangle width="131" height="200" as="alternateBounds" />
          </mxGeometry>
        </mxCell>
        <mxCell id="17U4AnQlsUlEn0hhstt_-96" value="" style="shape=partialRectangle;html=1;whiteSpace=wrap;connectable=0;strokeColor=inherit;overflow=hidden;fillColor=none;top=0;left=0;bottom=0;right=0;pointerEvents=1;fontSize=16;" parent="1" vertex="1">
          <mxGeometry x="70" y="1170" width="92" height="40" as="geometry">
            <mxRectangle width="92" height="40" as="alternateBounds" />
          </mxGeometry>
        </mxCell>
        <mxCell id="17U4AnQlsUlEn0hhstt_-133" value="&lt;div&gt;leaf blade length = f(height)&lt;br&gt;&lt;/div&gt;" style="shape=process;whiteSpace=wrap;html=1;backgroundOutline=1;" parent="1" vertex="1">
          <mxGeometry x="40" y="450" width="120" height="60" as="geometry" />
        </mxCell>
        <mxCell id="17U4AnQlsUlEn0hhstt_-137" value="&lt;b&gt;LAI yellow(t)&lt;br&gt;&lt;/b&gt;" style="rounded=0;whiteSpace=wrap;html=1;strokeWidth=2;" parent="1" vertex="1">
          <mxGeometry x="680" y="430" width="120" height="60" as="geometry" />
        </mxCell>
        <mxCell id="17U4AnQlsUlEn0hhstt_-138" value="" style="endArrow=classic;html=1;rounded=0;exitX=1;exitY=1;exitDx=0;exitDy=0;entryX=0.5;entryY=0;entryDx=0;entryDy=0;" parent="1" source="1i9LuDgw0BfFnJhBZ0tw-2" target="8UHLDPn8tABed_t0NQAo-24" edge="1">
          <mxGeometry width="50" height="50" relative="1" as="geometry">
            <mxPoint x="430" y="60" as="sourcePoint" />
            <mxPoint x="480" y="200" as="targetPoint" />
            <Array as="points">
              <mxPoint x="610" y="100" />
            </Array>
          </mxGeometry>
        </mxCell>
        <mxCell id="17U4AnQlsUlEn0hhstt_-140" value="" style="endArrow=classic;html=1;rounded=0;exitX=1;exitY=0.5;exitDx=0;exitDy=0;entryX=0;entryY=0.5;entryDx=0;entryDy=0;" parent="1" source="17U4AnQlsUlEn0hhstt_-143" target="8UHLDPn8tABed_t0NQAo-7" edge="1">
          <mxGeometry width="50" height="50" relative="1" as="geometry">
            <mxPoint x="160" y="210" as="sourcePoint" />
            <mxPoint x="480" y="310" as="targetPoint" />
          </mxGeometry>
        </mxCell>
        <mxCell id="17U4AnQlsUlEn0hhstt_-141" value="" style="endArrow=classic;html=1;rounded=0;exitX=1;exitY=0.5;exitDx=0;exitDy=0;entryX=0;entryY=0.5;entryDx=0;entryDy=0;" parent="1" source="17U4AnQlsUlEn0hhstt_-143" target="8UHLDPn8tABed_t0NQAo-3" edge="1">
          <mxGeometry width="50" height="50" relative="1" as="geometry">
            <mxPoint x="160" y="210" as="sourcePoint" />
            <mxPoint x="480" y="360" as="targetPoint" />
          </mxGeometry>
        </mxCell>
        <mxCell id="17U4AnQlsUlEn0hhstt_-142" value="" style="endArrow=classic;startArrow=classic;html=1;rounded=0;exitX=0.5;exitY=0;exitDx=0;exitDy=0;entryX=0.75;entryY=1;entryDx=0;entryDy=0;dashed=1;" parent="1" source="17U4AnQlsUlEn0hhstt_-12" target="8UHLDPn8tABed_t0NQAo-2" edge="1">
          <mxGeometry width="50" height="50" relative="1" as="geometry">
            <mxPoint x="430" y="410" as="sourcePoint" />
            <mxPoint x="480" y="360" as="targetPoint" />
          </mxGeometry>
        </mxCell>
        <mxCell id="17U4AnQlsUlEn0hhstt_-143" value="&lt;div&gt;Phyllochron&lt;br&gt;&lt;/div&gt;" style="rounded=0;whiteSpace=wrap;html=1;" parent="1" vertex="1">
          <mxGeometry x="40" y="290" width="120" height="60" as="geometry" />
        </mxCell>
        <mxCell id="17U4AnQlsUlEn0hhstt_-144" value="Leaf angle to stem" style="shape=process;whiteSpace=wrap;html=1;backgroundOutline=1;" parent="1" vertex="1">
          <mxGeometry x="40" y="520" width="120" height="60" as="geometry" />
        </mxCell>
        <mxCell id="17U4AnQlsUlEn0hhstt_-145" value="Leaf blade shape: width = f(length)" style="rounded=0;whiteSpace=wrap;html=1;" parent="1" vertex="1">
          <mxGeometry x="262.5" y="520" width="120" height="60" as="geometry" />
        </mxCell>
        <mxCell id="17U4AnQlsUlEn0hhstt_-146" value="" style="endArrow=classic;html=1;rounded=0;entryX=1;entryY=1;entryDx=0;entryDy=0;exitX=0.5;exitY=0;exitDx=0;exitDy=0;" parent="1" source="17U4AnQlsUlEn0hhstt_-12" target="8UHLDPn8tABed_t0NQAo-4" edge="1">
          <mxGeometry width="50" height="50" relative="1" as="geometry">
            <mxPoint x="540" y="510" as="sourcePoint" />
            <mxPoint x="480" y="340" as="targetPoint" />
          </mxGeometry>
        </mxCell>
        <mxCell id="17U4AnQlsUlEn0hhstt_-147" value="" style="endArrow=classic;html=1;rounded=0;exitX=1;exitY=0.5;exitDx=0;exitDy=0;entryX=0;entryY=1;entryDx=0;entryDy=0;" parent="1" source="17U4AnQlsUlEn0hhstt_-144" target="8UHLDPn8tABed_t0NQAo-4" edge="1">
          <mxGeometry width="50" height="50" relative="1" as="geometry">
            <mxPoint x="430" y="390" as="sourcePoint" />
            <mxPoint x="480" y="340" as="targetPoint" />
          </mxGeometry>
        </mxCell>
        <mxCell id="17U4AnQlsUlEn0hhstt_-149" value="" style="endArrow=classic;html=1;rounded=0;exitX=0.5;exitY=0;exitDx=0;exitDy=0;entryX=0.5;entryY=1;entryDx=0;entryDy=0;" parent="1" source="17U4AnQlsUlEn0hhstt_-145" target="8UHLDPn8tABed_t0NQAo-4" edge="1">
          <mxGeometry width="50" height="50" relative="1" as="geometry">
            <mxPoint x="410" y="350" as="sourcePoint" />
            <mxPoint x="460" y="300" as="targetPoint" />
          </mxGeometry>
        </mxCell>
        <mxCell id="17U4AnQlsUlEn0hhstt_-151" value="" style="endArrow=classic;html=1;rounded=0;exitX=0.417;exitY=1;exitDx=0;exitDy=0;exitPerimeter=0;" parent="1" source="8UHLDPn8tABed_t0NQAo-2" target="1i9LuDgw0BfFnJhBZ0tw-9" edge="1">
          <mxGeometry width="50" height="50" relative="1" as="geometry">
            <mxPoint x="330" y="310" as="sourcePoint" />
            <mxPoint x="380" y="260" as="targetPoint" />
          </mxGeometry>
        </mxCell>
        <mxCell id="FvVSb3jyjUTKX4zArB6A-2" value="" style="endArrow=classic;html=1;rounded=0;entryX=0;entryY=0;entryDx=0;entryDy=0;exitX=0;exitY=1;exitDx=0;exitDy=0;" parent="1" target="8UHLDPn8tABed_t0NQAo-18" edge="1" source="1i9LuDgw0BfFnJhBZ0tw-2">
          <mxGeometry width="50" height="50" relative="1" as="geometry">
            <mxPoint x="360" y="60" as="sourcePoint" />
            <mxPoint x="560" y="360" as="targetPoint" />
            <Array as="points">
              <mxPoint x="20" y="170" />
              <mxPoint x="20" y="610" />
            </Array>
          </mxGeometry>
        </mxCell>
        <mxCell id="1i9LuDgw0BfFnJhBZ0tw-3" value="" style="edgeStyle=orthogonalEdgeStyle;rounded=0;orthogonalLoop=1;jettySize=auto;html=1;" edge="1" parent="1" source="1i9LuDgw0BfFnJhBZ0tw-1" target="8UHLDPn8tABed_t0NQAo-3">
          <mxGeometry relative="1" as="geometry" />
        </mxCell>
        <mxCell id="1i9LuDgw0BfFnJhBZ0tw-1" value="Max nb of phytomers" style="shape=process;whiteSpace=wrap;html=1;backgroundOutline=1;" vertex="1" parent="1">
          <mxGeometry x="40" y="200" width="120" height="60" as="geometry" />
        </mxCell>
        <mxCell id="1i9LuDgw0BfFnJhBZ0tw-2" value="&lt;div&gt;&lt;b&gt;Adjusted thermal time (= t)&lt;/b&gt;&lt;/div&gt;" style="rounded=0;whiteSpace=wrap;html=1;strokeWidth=2;" vertex="1" parent="1">
          <mxGeometry x="345" y="5" width="120" height="60" as="geometry" />
        </mxCell>
        <mxCell id="1i9LuDgw0BfFnJhBZ0tw-4" value="Timing of tiller appearance = Haun Stage-delay" style="shape=process;whiteSpace=wrap;html=1;backgroundOutline=1;" vertex="1" parent="1">
          <mxGeometry x="40" y="740" width="120" height="60" as="geometry" />
        </mxCell>
        <mxCell id="1i9LuDgw0BfFnJhBZ0tw-6" value="" style="endArrow=classic;html=1;rounded=0;exitX=1;exitY=0.5;exitDx=0;exitDy=0;entryX=0;entryY=1;entryDx=0;entryDy=0;" edge="1" parent="1" source="1i9LuDgw0BfFnJhBZ0tw-4" target="8UHLDPn8tABed_t0NQAo-18">
          <mxGeometry width="50" height="50" relative="1" as="geometry">
            <mxPoint x="380" y="740" as="sourcePoint" />
            <mxPoint x="430" y="690" as="targetPoint" />
          </mxGeometry>
        </mxCell>
        <mxCell id="1i9LuDgw0BfFnJhBZ0tw-7" value="Or thermal time ?" style="text;html=1;align=center;verticalAlign=middle;whiteSpace=wrap;rounded=0;" vertex="1" parent="1">
          <mxGeometry x="-50" y="750" width="60" height="30" as="geometry" />
        </mxCell>
        <mxCell id="1i9LuDgw0BfFnJhBZ0tw-8" value="further altered by stresses" style="text;html=1;align=center;verticalAlign=middle;whiteSpace=wrap;rounded=0;" vertex="1" parent="1">
          <mxGeometry x="292.5" y="590" width="60" height="30" as="geometry" />
        </mxCell>
        <mxCell id="1i9LuDgw0BfFnJhBZ0tw-9" value="Stem growth = internode elongation (internode length and diameter)" style="ellipse;whiteSpace=wrap;html=1;" vertex="1" parent="1">
          <mxGeometry x="370" y="210" width="120" height="80" as="geometry" />
        </mxCell>
        <mxCell id="1i9LuDgw0BfFnJhBZ0tw-10" value="" style="endArrow=classic;html=1;rounded=0;exitX=0;exitY=1;exitDx=0;exitDy=0;entryX=1;entryY=0.5;entryDx=0;entryDy=0;" edge="1" parent="1" source="1i9LuDgw0BfFnJhBZ0tw-9" target="8UHLDPn8tABed_t0NQAo-7">
          <mxGeometry width="50" height="50" relative="1" as="geometry">
            <mxPoint x="380" y="360" as="sourcePoint" />
            <mxPoint x="430" y="310" as="targetPoint" />
          </mxGeometry>
        </mxCell>
      </root>
    </mxGraphModel>
  </diagram>
</mxfile>
